<svg width="35" height="162" viewBox="0 0 35 162" fill="none" xmlns="http://www.w3.org/2000/svg">
<line x1="18.5" x2="18.5" y2="62" stroke="white" stroke-dasharray="4 4"/>
<line x1="18.5" y1="100" x2="18.5" y2="162" stroke="white" stroke-dasharray="4 4"/>
<circle cx="17.5" cy="81.5" r="17" stroke="white"/>
<path d="M13.724 87.108C12.764 87.108 11.912 86.898 11.168 86.478C10.424 86.058 9.836 85.482 9.404 84.75C8.972 84.006 8.756 83.166 8.756 82.23C8.756 81.282 8.972 80.442 9.404 79.71C9.836 78.978 10.424 78.408 11.168 78C11.912 77.58 12.764 77.37 13.724 77.37C14.672 77.37 15.518 77.58 16.262 78C17.018 78.408 17.606 78.978 18.026 79.71C18.458 80.43 18.674 81.27 18.674 82.23C18.674 83.178 18.458 84.018 18.026 84.75C17.606 85.482 17.018 86.058 16.262 86.478C15.518 86.898 14.672 87.108 13.724 87.108ZM13.724 85.596C14.336 85.596 14.882 85.458 15.362 85.182C15.854 84.906 16.238 84.516 16.514 84.012C16.79 83.496 16.928 82.902 16.928 82.23C16.928 81.546 16.79 80.958 16.514 80.466C16.238 79.962 15.854 79.572 15.362 79.296C14.882 79.02 14.336 78.882 13.724 78.882C13.112 78.882 12.566 79.02 12.086 79.296C11.606 79.572 11.222 79.962 10.934 80.466C10.646 80.958 10.502 81.546 10.502 82.23C10.502 82.902 10.646 83.496 10.934 84.012C11.222 84.516 11.606 84.906 12.086 85.182C12.566 85.458 13.112 85.596 13.724 85.596ZM21.0638 87V77.46H22.7198V80.052L22.5578 79.404C22.8218 78.744 23.2658 78.24 23.8898 77.892C24.5138 77.544 25.2818 77.37 26.1938 77.37V79.044C26.1218 79.032 26.0498 79.026 25.9778 79.026C25.9178 79.026 25.8578 79.026 25.7978 79.026C24.8738 79.026 24.1418 79.302 23.6018 79.854C23.0618 80.406 22.7918 81.204 22.7918 82.248V87H21.0638Z" fill="#292929"/>
</svg>
